<?xml version="1.0" encoding="UTF-8" standalone="no"?>
<svg
   xmlns:dc="http://purl.org/dc/elements/1.1/"
   xmlns:cc="http://creativecommons.org/ns#"
   xmlns:rdf="http://www.w3.org/1999/02/22-rdf-syntax-ns#"
   xmlns:svg="http://www.w3.org/2000/svg"
   xmlns="http://www.w3.org/2000/svg"
   xmlns:sodipodi="http://sodipodi.sourceforge.net/DTD/sodipodi-0.dtd"
   xmlns:inkscape="http://www.inkscape.org/namespaces/inkscape"
   inkscape:version="1.0 (4035a4f, 2020-05-01)"
   sodipodi:docname="icon.svg"
   id="svg636"
   version="1.1"
   viewBox="0 0 2000 2000"
   height="6.66667in"
   width="6.66667in">
  <metadata
     id="metadata642">
    <rdf:RDF>
      <cc:Work
         rdf:about="">
        <dc:format>image/svg+xml</dc:format>
        <dc:type
           rdf:resource="http://purl.org/dc/dcmitype/StillImage" />
        <dc:title></dc:title>
      </cc:Work>
    </rdf:RDF>
  </metadata>
  <defs
     id="defs640" />
  <sodipodi:namedview
     inkscape:current-layer="svg636"
     inkscape:window-maximized="1"
     inkscape:window-y="28"
     inkscape:window-x="0"
     inkscape:cy="341.89103"
     inkscape:cx="281.46283"
     inkscape:zoom="0.70710678"
     showgrid="false"
     id="namedview638"
     inkscape:window-height="644"
     inkscape:window-width="1366"
     inkscape:pageshadow="2"
     inkscape:pageopacity="0"
     guidetolerance="10"
     gridtolerance="10"
     objecttolerance="10"
     borderopacity="1"
     bordercolor="#666666"
     pagecolor="#ffffff" />
  <path
     sodipodi:insensitive="true"
     d="M 968.99999,40.618731 C 615.92812,48.965508 278.17314,269.2833 131.34999,591.19873 118.44814,637.65581 89.229263,678.23086 79.736606,726.77038 -28.127165,1076.3937 87.498821,1481.6425 365.1166,1720.5034 652.82635,1980.9648 1102.9425,2035.593 1444.5411,1851.1906 1770.1282,1686.9733 1978.0979,1323.0679 1959.04,959.76476 1948.3487,581.79021 1690.4023,227.31677 1334.4768,100.12638 1218.0035,56.942356 1093.0789,36.921005 968.99999,40.618731 Z"
     style="display:inline;fill:#ff00ff;fill-opacity:1;stroke:none"
     id="fuscha" />
  <path
     sodipodi:insensitive="true"
     clip-path="none"
     style="fill:#7f00ff;fill-opacity:1;stroke:none;stroke-opacity:1"
     id="lilac"
     fill="none"
     stroke="#000000"
     stroke-width="1"
     d="m 967.66249,40.000006 c 0,0 1,19 1,19 0,0 -1,18 -1,18 -0.03,19.28 -5.18,42.329994 -16.76,57.999994 -19.46,26.32 -58.36,41.12 -89.24,48.87 -59.55,14.96 -132.76,17.67 -182,-25.16 -17.69,-15.39 -26.65,-29.8 -38,-49.70999 -11.01,2.96999 -47.14,19.99999 -59,25.73999 -31.16,15.09 -61.58,31.36 -91,49.68 0,0 -38,24.92 -38,24.92 0,0 -17,11.66 -17,11.66 5.86,7.8 30.87,25.5 40,32.15 27.24,19.87 55.37,39.03 81,60.98 19.5,16.71 38.2,34.3 55.96,52.87 0,0 28.08,30 28.08,30 0,0 52.96,52.99 52.96,52.99 0,0 43,40.1 43,40.1 0,0 23,22.91 23,22.91 23.88,23.88 44.69,45.46 64.58,73 49.66,68.78 73.89,142.78 86.15,226 5.61,38.08 8.56,76.68 11.18,115 0,0 4.26,65 4.26,65 6.04,63.4 12.77,112.61 31.85,174 26.41,84.95 73.14001,161.34 107.40001,243 18.73,44.62 35.5,92.28 37.62,141 0,0 0.78,8 0.78,8 0,0 -0.86,7 -0.86,7 0,0 0,9 0,9 -1.14,10.62 -4.25,24.04 -8.02,34 -13.97,36.83 -51.31,78.45 -73.13,114 -32.40001,52.8 -49.39001,108.34 -53.90001,170 0,0 -1.95,24 -1.95,24 0,0 0,16 0,16 0,0 -0.96,10 -0.96,10 0,0 0,11 0,11 0.13,7.25 2.37,6.97 9,7 0,0 49.00001,0 49.00001,0 0,0 10,-0.96 10,-0.96 0,0 13,0 13,0 0,0 10,-0.95 10,-0.95 29.78,-2.04 59.47,-4.42 89,-9.34 0,0 35,-6.14 35,-6.14 3.12,-0.58 11.05,-1.36 13.15,-3.46 1.56,-1.57 2.02,-5.02 2.45,-7.15 0,0 3.13,-17 3.13,-17 3.35,-22.75 6,-46.02 6.27,-69 0,0 1,-15 1,-15 0,0 0,-18 0,-18 0,0 1,-15 1,-15 0,0 0,-24 0,-24 0,0 0.96,-12 0.96,-12 0,0 0,-12 0,-12 0,0 1.87,-21 1.87,-21 2.55,-25.47 7.37,-48.53 22.19,-70 12.71,-18.4 32.24,-32.23 51.98,-42.24 11.88,-6.02 29.15,-12.51 42,-16.18 52.6,-15.01 124.48,-21.84 168,18.51 33.33,30.89 48.88,75.73 59.12,118.91 0,0 7.88,39 7.88,39 7.2,-3.53 18.36,-12.59 25,-17.79 0,0 38,-30.94 38,-30.94 23.98,-20.55 47.12,-42.44 68.96,-65.27 0,0 19.12,-21 19.12,-21 9.17,-9.96 36.95,-41.72 42.92,-52 0,0 -18,-14.58 -18,-14.58 0,0 -40,-28.37 -40,-28.37 -32.37,-20.54 -71.36,-41.38 -101,-64.47 -35.86,-27.94 -64.26,-63.06 -93.42,-97.58 0,0 -37.75,-43 -37.75,-43 -37.21,-41.14 -77.22,-79.77 -110.95,-124 -29.63,-38.86 -53.05,-81.09 -69.83,-127 -37.89,-103.69 -36.49,-204.68 -47.22,-312 -5.45,-54.53 -14.57,-102.6 -30.85,-155 -30.65,-98.6 -91.2,-184.56 -129.38,-280 -11.21,-28.02 -21.44,-56.44 -27.81,-86 -2.33,-10.78 -5.66,-28.22 -5.79,-39 -0.2,-17.02 -0.19,-27.66 6.06,-44 10.17,-26.58 39.92,-53.75 59.11,-74.99999 0,0 27.18,-32.000004 27.18,-32.000004 3.94,-5.11 8.95,-10.72 10.65,-17 0,0 -29,-3.72 -29,-3.72 0,0 -39,-4.11 -39,-4.11 0,0 -22,-1.26 -22,-1.26 0,0 -12,-0.91 -12,-0.91 0,0 -23,-1 -23,-1 0,0 -54.00001,0 -54.00001,0 z m -252,43 c 8.02,9.47 28.88,18.260004 41,21.370004 49.95,12.79999 104.36,-8.860004 126,-57.370004 -30.55,2.48 -69.77,10.86 -100,17.58 -13.8,3.06 -55.66,13.45 -67,18.42 z m 497.00001,-19 c 0,0 -14.69,29 -14.69,29 0,0 -42.56,76.999994 -42.56,76.999994 0,0 -12.7,28 -12.7,28 -12.69,34.61 -13.47,52.95 -13.05,89 0.22,18.48 7.86,50.94 13.28,69 12.93,43.11 31.7,83.93 49.86,125 17.68,40 34.84,80.18 47.84,122 10.92,35.14 18.52,69.75 24.61,106 12.26,73.12 12.54,147.54 21.69,221 7.12,57.06 19.84,109.81 44.5,162 8.87,18.77 23.05,41.27 35.37,58 10.81,14.68 22.98,28.13 35.85,41 46.57,46.57 92.24,72.65 142,112.45 24.4,19.52 47.36,40.97 68.96,63.55 0,0 28.08,30 28.08,30 0,0 51.96,52 51.96,52 0,0 10,9.09 10,9.09 0,0 34,32 34,32 0,0 25,24.91 25,24.91 7.08,7.08 21.57,20.83 27,28 5.35,-4.96 16.16,-22.95 20.69,-30 14.35,-22.31 27.41,-45.44 39.57,-69 37.59,-72.85 66.04,-149.04 84.39,-229 5.74,-25.03 10.97,-50.53 14.35,-76 0,0 -8.04,7.28 -8.04,7.28 -7.68,6.97 -13.83,11.47 -22.96,16.41 -18.31,9.93 -37.85,16.64 -58,21.68 -24.31,6.08 -51.96,9.92 -77,9.63 0,0 -10,-0.91 -10,-0.91 -43.35,-2.98 -78.37,-15.35 -107.71,-49.09 -18.89,-21.72 -31.92,-50.88 -40.96,-78 -11.97,-35.91 -18.74,-73.41 -22.5,-111 0,0 -2.83,-36 -2.83,-36 0,0 -1,-17 -1,-17 0,0 0,-51 0,-51 0,0 1,-22 1,-22 0,0 1,-11 1,-11 0,0 0,-10 0,-10 0,0 0.91,-7 0.91,-7 0,0 3.26,-46 3.26,-46 0,0 2.74,-30 2.74,-30 0,0 2.09,-37 2.09,-37 0,0 1,-17 1,-17 0,0 0,-46 0,-46 0,0 -1.91,-28 -1.91,-28 -4.53,-64.76 -23.14,-127.74 -43.76,-189 0,0 -23.61,-71 -23.61,-71 -11.39,-37.81 -18.95,-65.82 -25.47,-105 0,0 -4.08,-31 -4.08,-31 -0.4,-4.07 -0.07,-11.24 -2.76,-14.47 -1.89,-2.28 -15.89,-10.22 -19.41,-12.33 0,0 -48,-26.51 -48,-26.51 -51.61,-27.91 -111.79,-51.039994 -168,-67.969994 0,0 -60,-15.72 -60,-15.72 z M 1557.6625,220 c 0.19,8.46 3.01,22.31 4.58,31 4.63,25.69 11.2,51.01 18.7,76 21.68,72.25 49.86,142.48 63.3,217 4.3,23.85 8.38,54.94 8.42,79 0,0 1,15 1,15 0,0 0,17 0,17 0,0 -1,13 -1,13 -0.47,40.21 -6.16,79.95 -8.91,120 0,0 -2.09,34 -2.09,34 0,0 -1,17 -1,17 0,0 0,44 0,44 0,0 0.91,12 0.91,12 0,0 2.81,33 2.81,33 6.83,52.48 21.81,107.59 60.28,146 14.23,14.21 30.51,24.51 50,29.85 8.77,2.4 17.89,4.14 27,4.15 0,0 9,0 9,0 9.22,-0.11 20.22,-2.4 29,-5.19 8.29,-2.65 14.55,-5.51 22,-10.01 49.62,-29.97 59.84,-93.96 66.15,-146.8 0,0 13.93,-110 13.93,-110 0,0 6.8,-34 6.8,-34 0,0 4.57,-19 4.57,-19 0.44,-4.26 -2.9,-15.29 -4.08,-20 0,0 -12.95,-46 -12.95,-46 -14.1,-48.2 -34.81,-97.82 -56.68,-143 0,0 -22.74,-43 -22.74,-43 -5.58,2.67 -10.54,5.9 -17,5.92 -9.86,0.03 -17.47,-6.27 -23.99,-12.92 -13.35,-13.63 -25.16,-36.79 -33.76,-54 0,0 -34.97,-78 -34.97,-78 0,0 -13.94,-33 -13.94,-33 -3.74,-5.94 -9.44,-10.76 -14.06,-16 0,0 -38.28,-38.9 -38.28,-38.9 0,0 -6.58,-5.47 -6.58,-5.47 0,0 -7.42,-7.46 -7.42,-7.46 0,0 -58,-48.82 -58,-48.82 -7.26,-5.61 -23.6,-18.54 -31,-22.35 z M 387.66249,259 c 0,0 -51.00001,45.09 -51.00001,45.09 -35.22,32.82 -71.87,74.57 -101.12,112.91 -95.43,125.11 -158.269989,270.82 -183.959989,426 0,0 -7.75,56 -7.75,56 0,0 -2.34,29 -2.34,29 0,0 -0.92,14 -0.92,14 0,0 -0.95,10 -0.95,10 0,0 0,13 0,13 0,0 -0.96,12 -0.96,12 0,0 0,46 0,46 0,0 1,17 1,17 0,0 4.17,61 4.17,61 0,0 5.1,40 5.1,40 0,0 3.73,25 3.73,25 3.93,-3.86 6.53,-9.43 9.88,-14 5.63,-7.67 11.91,-14.95 18.29,-22 0,0 22.739999,-24 22.739999,-24 17.08,-18.33 33.8,-37.9 47.39999,-59 31.99,-49.67 46.04,-101.78 51.86,-160 0,0 1.92,-24 1.92,-24 0,0 0.91,-10 0.91,-10 0,0 1,-22 1,-22 0,0 0,-18 0,-18 0,0 1,-15 1,-15 0,0 0,-24 0,-24 0,0 1,-22 1,-22 0,0 0.91,-12 0.91,-12 1.48,-21.11 4.11,-42.35 12.52,-62 21.07,-49.28 79.15,-73.46 128.57001,-83.4 10.88,-2.19 31.25,-5.47 42,-5.6 26.62,-0.31 50.28,0.98 75,12.31 37.12,17.01 58.34,52.9 72.05,89.69 25.44,68.24 31.06,144.81 30.95,217 0,0 -0.96,12 -0.96,12 0,0 0,12 0,12 0,0 -1.04,12 -1.04,12 0,0 0,9 0,9 0,0 -1.91,21 -1.91,21 0,0 -9.26,96 -9.26,96 0,0 -2.92,38 -2.92,38 0,0 -0.93,10 -0.93,10 0,0 0,16 0,16 0,0 -0.98,11 -0.98,11 0,0 0,9 0,9 0,0 0.96,11 0.96,11 0,0 0,13 0,13 0,0 0.95,12 0.95,12 2.01,29.28 6.19,58.4 12.97,87 21.41,90.26 60.19,175.49 76.7,267 4.82,26.72 8.11,53.87 8.42,81 0,0 1,13 1,13 0,0 0,15 0,15 0,0 -0.96,12 -0.96,12 0,0 0,13 0,13 0,0 -1.95,28 -1.95,28 0,0 -7.18,88 -7.18,88 0,0 -1.91,24 -1.91,24 0,0 -1,21 -1,21 0,0 0,44 0,44 0.02,9.23 -0.32,7.98 15,13.81 0,0 45,15.86 45,15.86 38.47,12.82 88.04,25.51 128,32.25 0,0 51,7.8 51,7.8 0,0 27,3.28 27,3.28 0,0 5.84,-50 5.84,-50 6.51,-60.9 14.75,-115.48 37.36,-173 0,0 28.05,-62 28.05,-62 14.35,-28.69 30.14001,-57.2 39.73001,-88 8.66,-27.86 11.36,-50.98 11.02,-80 0,0 -0.91,-10 -0.91,-10 -3.3,-47.18 -19.25,-92.4 -36.69001,-136 -26.95,-67.36 -55.83,-126.91 -74.52,-198 -16.17,-61.55 -23.47,-124.72 -27.79,-188 -5.89,-86.21 -9.52,-174 -43.51,-255 -17.12,-40.79 -41.45,-78.45 -72.59,-110 0,0 -9.99,-9.09 -9.99,-9.09 -15.42,-14.34 -31.74,-27.13 -49,-39.19 -44.79,-31.3 -95.13,-53.93 -136,-90.89 -27.7,-25.05 -51.11,-54.49 -75.27,-82.83 0,0 -71.64,-79 -71.64,-79 0,0 -27.92,-30 -27.92,-30 -4.34,-4.8 -10.26,-12.17 -15.17,-16 z m 950.00001,9.32 c 17.84,-1.94 29.89,10.55 39.87,23.68 17.91,23.56 37.72,64.45 49.99,92 24.5,55.04 48.67,110.53 60.34,170 0,0 7.76,54 7.76,54 0,0 0,9 0,9 0,0 1.04,12 1.04,12 0,0 0,47 0,47 0,0 -1,19 -1,19 0,0 -0.91,10 -0.91,10 0,0 -3.92,45 -3.92,45 0,0 -4.75,45 -4.75,45 -4.62,34.56 -8.64,91.3 -18.76,123 -4.37,13.67 -10.95,34.88 -28.66,33.96 -14.55,-0.76 -25.35,-21.1 -30.42,-32.96 -15.1,-35.32 -18.95,-75.28 -24.16,-113 0,0 -11.69,-93 -11.69,-93 -7.32,-49.68 -16.84,-99.41 -29.61,-148 0,0 -31.75,-116 -31.75,-116 -8.45,-32.89 -15.77,-65.86 -15.37,-100 0.23,-19.06 5.76,-45.04 16.36,-61 6.57,-9.91 13.72,-17 25.64,-19.68 z m -309,337.01 c 14.9,-1.61 29.05,9.73 39,19.67 24.87,24.87 39.49,57.57 51.58,90 6.51,17.48 11.58,40.55 15.03,59 9.34,49.89 12.03,100.54 15.48,151 0,0 6.74,86 6.74,86 0,0 2.34,31 2.34,31 0,0 4.92,60 4.92,60 0,0 1.91,26 1.91,26 0,0 0,29 0,29 -0.03,17.06 -3.6,49.53 -28,44.33 -3.54,-0.75 -6.81,-1.95 -10,-3.65 -6.18,-3.29 -12.68,-8.55 -18,-13.11 -24.65,-21.12 -49.32,-66.64 -59.67,-97.57 -13.75,-41.1 -20.85,-76.92 -25.16,-120 0,0 -2.34,-28 -2.34,-28 0,0 -2.87,-42 -2.87,-42 0,0 -0.96,-14 -0.96,-14 0,0 -2,-31 -2,-31 0,0 -1,-18 -1,-18 0,0 -1.91,-29 -1.91,-29 0,0 -3.18,-54 -3.18,-54 0,0 -1.91,-26 -1.91,-26 0,0 -1,-27 -1,-27 0,0 -1,-15 -1,-15 -0.03,-17.57 -0.37,-39.04 4.15,-56 2.81,-10.52 6.46,-18.94 17.85,-21.67 z M 374.66249,1729 c 0,0 -8.75,-57 -8.75,-57 -7.92,-45.61 -18.56,-90.27 -30.37001,-135 -14.74,-55.83 -39.97,-128.13 -39.88,-185 0.04,-22.57 6.06,-49.83 19.9,-68 8.8,-11.56 21.5,-19.57 36.10001,-13.88 13.06,5.09 25.43,21.45 33,32.88 16.02,24.18 35.62,64.94 47.42,92 28.89,66.24 53.95,126.14 61.74,199 0,0 1.93,24 1.93,24 0,0 0.91,12 0.91,12 0,0 0,45 0,45 0,0 -1,15 -1,15 0,0 -1.91,27 -1.91,27 0,0 -5.25,56 -5.25,56 0,0 -3.67,32 -3.67,32 -0.15,1.94 -0.18,3.95 0.85,5.68 1.39,2.31 5.64,4.7 7.98,6.12 0,0 16,9.6 16,9.6 0,0 47,25.91 47,25.91 7.59,4.1 34.02,17.7 41,19.69 0,0 0,-21 0,-21 0,0 1,-17 1,-17 0,0 2.91,-47 2.91,-47 0,0 2.26,-32 2.26,-32 0,0 2.92,-37 2.92,-37 0,0 1.91,-25 1.91,-25 0,0 1,-22 1,-22 0,0 0,-46 0,-46 0,0 -0.96,-13 -0.96,-13 -0.98,-22.43 -3.47,-44.86 -7.46,-67 -16.2,-89.81 -50.11,-163.09 -72.7,-249 -10.01,-38.1 -16.28,-74.74 -18.97,-114 0,0 -0.91,-12 -0.91,-12 0,0 0,-47 0,-47 0,0 0.96,-11 0.96,-11 0,0 6.88,-73 6.88,-73 0,0 6.33,-60 6.33,-60 0,0 1.92,-25 1.92,-25 0,0 0.95,-10 0.95,-10 0,0 0,-13 0,-13 0,0 0.96,-12 0.96,-12 0,0 0,-18 0,-18 0,0 -1,-22 -1,-22 0,0 -1.84,-21 -1.84,-21 -4.42,-41.34 -12.45,-76.89 -31.91,-114 -16.18,-30.87 -42.56,-56.4 -77.25,-64.35 -5.59,-1.28 -12.29,-2.58 -18,-2.65 0,0 -11,0 -11,0 -10.53,0.02 -21.05,2.32 -31,5.67 -7.53,2.53 -17.35001,7.34 -24.00001,11.67 -58.31,37.96 -62.81,120.32 -71.42,182.66 0,0 -6.17,46 -6.17,46 0,0 -12.78,64 -12.78,64 -10.19,40.75 -25,74.22 -44.94,111 -20.58,37.97 -45.52,74.22 -57.96999,116 -8.23,27.6 -8.05,44.85 -7.72,73 0.16,13.75 5.2,38.3 8.62999,52 9.31,37.26 24.02,72.94 39.51,108 0,0 37.85,87 37.85,87 0,0 17.96,46 17.96,46 0,0 26.64,34 26.64,34 18.5,22.23 37.96,43.55 58.41,64 0,0 37.00001,35.17 37.00001,35.17 5.74,5.17 12.42,11.99 19,15.83 z m 353,-880.63 c 13.98,-0.43 23.74,16.34 28.57,27.63 13.3,31.05 17.27,65.81 21.85,99 0,0 11.85,93 11.85,93 7.69,52.19 18.2,103.98 31.61,155 0,0 31.54,113 31.54,113 6.62,23.79 16.29,65.9 16.58,90 0,0 0,23 0,23 -0.03,22.22 -7.96,50.78 -20.72,69 -10.88,15.53 -27.46,25.73 -45.28,13.9 -12.61,-8.38 -24.03,-27.64 -31.3,-40.9 -17.34,-31.58 -31.19,-64.94 -45.42,-98 -27.96,-64.96 -54.22,-139.94 -57.32,-211 0,0 -0.96,-13 -0.96,-13 0,0 0,-36 0,-36 0,0 1,-19 1,-19 0,0 0.91,-10 0.91,-10 2.23,-32.45 6.68,-64.75 11.09,-97 4.83,-35.3 11.08,-86.67 19.88,-120 3.73,-14.11 10.09,-35.05 26.12,-38.63 z M 1252.6625,1926 c 69.73,-20.37 125.27,-41.34 190,-74.74 24.96,-12.88 49.61,-26.67 73,-42.26 -6.35,-33.72 -26.47,-79.66 -52,-102.83 -11.85,-10.75 -25.7,-19.52 -41,-24.42 -40.52,-13.01 -86.84,0.19 -114.71,32.25 -23.91,27.49 -33.4,63.98 -39.71,99 0,0 -9.73,70 -9.73,70 0,0 -5.85,43 -5.85,43 z" />
  <path
     sodipodi:insensitive="true"
     style="fill:#7f7fff;fill-opacity:1;stroke:none"
     id="baby blue"
     fill="none"
     stroke="#000000"
     stroke-width="1"
     d="m 987.8196,41.996761 c 2.11,15.68 7.64,40.249988 13.05,54.999982 2.83,7.709997 6.94,17.179997 13.96,21.889997 11.84,7.94 25.3,2.21 36.99,-2.89 16.5,-7.21 35.43,-21.909997 49,-33.719991 9.14,-7.949994 22.57,-21.149988 29,-31.279988 0,0 -58,-6.09 -58,-6.09 0,0 -33,-1.91 -33,-1.91 0,0 -17,-1 -17,-1 0,0 -34,0 -34,0 z M 735.81958,78.996752 c 8.04,7.949997 32.59,12.979994 44,12.999994 25.46,0.04 43.66,-4.509997 64,-20.809991 6.3,-5.049997 13.65,-11.759994 17,-19.189994 -16.12,1.31 -59.86,10.41 -77,14.349997 0,0 -48,12.649994 -48,12.649994 z m 489.00002,-9.999997 c 0,0 -18.31,36.999985 -18.31,36.999985 -18.13,33.53 -42.46,72.94 -53.67,109 -8.03,25.84 -10.33,46.09 -10.02,73 0,0 0.91,10 0.91,10 1.42,20.35 5.39,40.38 10.95,60 12.21,43.11 29.24,81.04 46.72,122 33.49,78.51 57.75,140.68 71,226 5.13,33.08 9.04,66.64 11.33,100 7.69,111.88 14.23,229.72996 80.81,324.99996 28.99,41.48 62.86,71.43 104.28,99.98 34.41,23.71 77.49,46.9 109,73.1 0,0 28.96,25.96 28.96,25.96 0,0 8.08,8.96 8.08,8.96 0,0 66.13,74 66.13,74 0,0 22.79,24 22.79,24 0,0 9.05,10 9.05,10 0,0 42.95,43 42.95,43 0,0 8.08,9 8.08,9 0,0 13.79,14 13.79,14 0,0 19.17,21 19.17,21 5.6,-4.74 15.76,-21.96 20,-29 0,0 33.26,-59 33.26,-59 41.78,-80.97 73.85,-168.26 90.74,-258 0,0 -37,9.12 -37,9.12 -31.56,7.48 -63.62,13.7 -96,15.97 0,0 -10,0.91 -10,0.91 -37.2,0.43 -72.26,-0.02 -106,-18.31 -38.81,-21.04 -59.57,-61.4 -73,-101.69 -12.34,-37.01 -19.53,-75.33 -24.15,-114 0,0 -3.89,-45.99996 -3.89,-45.99996 0,0 -1,-13 -1,-13 0,0 0,-14 0,-14 0,0 -0.96,-12 -0.96,-12 0,0 0,-23 0,-23 0,0 1,-17 1,-17 0,0 0,-14 0,-14 0,0 1,-17 1,-17 0,0 0.91,-11 0.91,-11 0,0 1.92,-28 1.92,-28 0,0 1.26,-20 1.26,-20 0,0 3,-38 3,-38 0,0 1.91,-29 1.91,-29 0,0 1,-13 1,-13 0,0 0,-17 0,-17 0,0 0.96,-10 0.96,-10 0,0 0,-11 0,-11 0,0 -0.92,-12 -0.92,-12 0,0 0,-16 0,-16 0,0 -0.95,-11 -0.95,-11 -2.77,-40.4 -9.66,-79.87 -20.24,-119 0,0 -52.43,-164 -52.43,-164 -10.3,-35.28 -16.33,-59.61 -22.34,-96 0,0 -3.91,-31 -3.91,-31 -0.35,-3.63 -0.35,-11.71 -2.19,-14.67 -1.75,-2.83 -12.57,-8.71 -15.98,-10.73 0,0 -44,-24.02 -44,-24.02 0,0 -24,-11.84 -24,-11.84 -29.03,-14.05 -58.61,-26.58 -89,-37.429997 -28.47,-10.169997 -71.85,-24.449988 -101,-30.309988 z M 448.81958,216.99674 c 0,0 20,13.98 20,13.98 0,0 29,18.97 29,18.97 32.13,20.38 64.63,39.56 93,65.22 23.7,21.43 44.26,45.81 65.28,69.83 0,0 55.76,61 55.76,61 0,0 42.95,43 42.95,43 0,0 9.05,10 9.05,10 17.1,17.88 34.02,35.64 49.51,55 39.17,48.95 66.66,100.99 84.73,161 18.92,62.81 26.18,128.85 30.63,194 0,0 6.26,90.99996 6.26,90.99996 5.2,54.4 12.73,103.46 28.55,156 31.95002,106.1 95.73002,198.68 134.70002,302 15.34,40.64 29.02,83.39 31.49,127 0.24,4.2 -0.54,6.13 -0.82,10 -2.47,33.72 -20.39,51.16 -41.92,75 -20.66,22.87 -40.72,44.96 -57.48,71 -24.63,38.26 -39.56,82.05 -45.82002,127 0,0 -3.87,37 -3.87,37 0,0 -1,22 -1,22 0,0 0,20 0,20 0,0 1,15 1,15 0,0 42.00002,0 42.00002,0 0,0 23,-1 23,-1 0,0 13,-0.96 13,-0.96 0,0 71,-6.89 71,-6.89 0,0 38,-5.9 38,-5.9 3.26,-0.55 12.04,-1.56 14.15,-3.83 2.33,-2.52 5.05,-19.18 5.77,-23.42 3.57,-21.15 5.83,-42.57 6.08,-64 0,0 1,-15 1,-15 0,0 0,-30 0,-30 0,0 -1,-17 -1,-17 0,0 -3,-88 -3,-88 0,0 0.91,-12 0.91,-12 1.25,-17.84 3.97,-33.15 14.85,-48 14.18,-19.39 38.5,-32.51 60.24,-41.85 43.82,-18.82 93.33,-31.11 141,-33.19 0,0 12,-0.96 12,-0.96 0,0 4,0 4,0 0,0 10,0.91 10,0.91 23.69,1.62 46.29,5.56 66,20.01 37.83,27.73 55.33,89.74 64.2,134.08 2.36,11.79 7.56,35.92 7.8,47 6.71,-2.61 13.25,-8.69 19,-13.12 0,0 35,-28.61 35,-28.61 45.57,-39.05 85.21,-80.72 123,-127.27 -6.33,-8.1 -30.38,-23.62 -40,-29.68 -26.23,-16.53 -54.34,-29.25 -82,-43.07 -19.48,-9.74 -36.71,-17.94 -54,-31.7 -23.79,-18.93 -41.99,-43.28 -59.88,-67.55 0,0 -50.92,-67 -50.92,-67 -52.41,-64.94 -115.29,-124.09 -153.94,-199 -31.01,-60.09 -47.49,-115.36 -57.84,-182 -12.67,-81.62996 -12.65,-164.28996 -24.69,-245.99996 -9.94,-67.49 -30.45,-133.95 -60.98,-195 0,0 -18.06,-36 -18.06,-36 0,0 -47.43,-88 -47.43,-88 -25.34,-49.11 -48.41,-99.14 -67.58,-151 0,0 -21.26,-54 -21.26,-54 -4.19,-9.64 -10.04,-21.2 -19.42,-26.64 -7.07002,-4.1 -13.19002,-3.45 -21.00002,-3.36 -9.22,0.11 -23.8,3.83 -33,6.13 0,0 -47,11.45 -47,11.45 -26.68,5.89 -53.74,10.6 -81,12.51 0,0 -10,0.91 -10,0.91 0,0 -31,0 -31,0 0,0 -20,-1.72 -20,-1.72 -32.31,-4.2 -57.87,-13.82 -81.91,-36.56 -7.17,-6.79 -14.34,-16.43 -19.75,-24.72 -5.61,-8.6 -14.58,-24.3 -17.34,-34 -8.86,2.08 -35.51,15.15 -45,19.74 -31.16,15.09 -61.58,31.36 -91,49.68 0,0 -30,19.58 -30,19.58 -4.74,3.16 -10.31,5.83 -13,11 z m 889.00002,1.32 c 20.74,-2.27 32.18,11.66 42.66,27.68 16.92,25.87 38.38,77.16 51.19,107 29.72,69.25 60.03,140.3 72.56,215 0,0 5.68,51 5.68,51 0,0 0.91,12 0.91,12 0,0 0,51 0,51 0,0 -1,18 -1,18 0,0 -0.91,12 -0.91,12 0,0 -1.92,26 -1.92,26 0,0 -1.34,19 -1.34,19 0,0 -6.66,70 -6.66,70 -3.78,39.01 -7.06,99.8 -17.46,135.99996 -4.41,15.36 -12.53,38.02 -30.71,40.7 -19.47,2.87 -35.28,-16.83 -43.99,-31.7 -21.36,-36.48996 -28.33,-83.57996 -33.73,-124.99996 0,0 -10.44,-99 -10.44,-99 -5.46,-50.99 -15.72,-111.46 -28.72,-161 0,0 -26.14,-92 -26.14,-92 -9.35,-30.06 -18.61,-60.24 -25.4,-91 -3.21,-14.49 -7.56,-38.47 -7.58,-53 0,0 0,-23 0,-23 0.33,-28.26 12.11,-62.62 29.24,-85 8.66,-11.33 19.48,-21.47 33.76,-24.68 z m 230,10.68 c 0.09,9.91 3.59,24.93 5.6,35 4.81,24.03 11.17,47.59 18.38,71 20.8,67.64 47.33,134.25 60.41,204 4.44,23.72 9.33,55.11 9.61,79 0,0 1,15 1,15 0,0 0,34 0,34 0,0 -1,21 -1,21 0,0 -0.91,11 -0.91,11 0,0 -3.92,48 -3.92,48 0,0 -4.26,51 -4.26,51 0,0 -1.91,33 -1.91,33 0,0 -1,15 -1,15 0,0 0,29 0,29 0,0 1,20 1,20 0,0 3.73,36 3.73,36 5.35,37.43996 17.13,78.75996 38.99,109.99996 19.59,27.99 50.93,50.94 86.28,51 0,0 10,0 10,0 8.44,-0.1 19.1,-2.45 27,-5.42 57.32,-21.57 70.29,-82.98 79.08,-136.57996 0,0 9.07,-70 9.07,-70 0,0 9.27,-60 9.27,-60 0,0 9.21,-40 9.21,-40 1.52,-5.92 4.76,-14.11 4.19,-20 0,0 -5.11,-20 -5.11,-20 0,0 -11.38,-37 -11.38,-37 -9.48,-28.46 -19.82,-56.47 -31.75,-84 0,0 -23.58,-51 -23.58,-51 -8.87,6.91 -20.43,25.34 -38,26.81 -12.46,1.05 -22.81,-10.57 -29.28,-19.81 -14.27,-20.37 -27.6,-55.59 -37.57,-79 0,0 -22.35,-56 -22.35,-56 0,0 -21.38,-54 -21.38,-54 0,0 -11.73,-31 -11.73,-31 0,0 -7.77,-21 -7.77,-21 -2.09,-3.6 -7.8,-8.88 -10.92,-12 0,0 -23,-22.09 -23,-22.09 0,0 -56,-48.51 -56,-48.51 -7.09,-5.67 -22.82,-18.27 -30,-22.4 z M 45.81955,1117.9967 c 8.94,-2.41 20.24,-9.46 28,-14.67 17.929996,-12.02 35.05,-26.98 49.13001,-43.33 39.67002,-46.07 58.37002,-96.31 66.15002,-155.99996 0,0 2.81,-29 2.81,-29 0,0 0.95,-10 0.95,-10 0,0 0,-12 0,-12 0,0 0.96,-12 0.96,-12 0,0 0,-30 0,-30 0,0 -1,-17 -1,-17 0,0 0,-14 0,-14 0,0 -1,-20 -1,-20 0,0 -0.96,-12 -0.96,-12 0,0 0,-12 0,-12 0,0 -1.04,-15 -1.04,-15 -0.27,-23.7 0.18,-50.29 13.06,-71 12.2,-19.61 32.85,-31.23 52.94,-41.25 24.88,-12.41 53.98,-21.23 81,-27.63 20.1,-4.77 40.45,-7.99 61,-10.08 0,0 10,0 10,0 0,0 10,-1.04 10,-1.04 0,0 15,0.91 15,0.91 29.54,2.02 53.47,7.42 75.99,28.26 18.93,17.52 32.27,48.59 40.34,72.83 12.08,36.25 20.76,83.9 24.83,122 0,0 3.84,39 3.84,39 0,0 0,9 0,9 0,0 1,10 1,10 0,0 0,16 0,16 0,0 1,13 1,13 0,0 0,17 0,17 0,0 -1,15 -1,15 0,0 -1.91,43 -1.91,43 0,0 -1.26,20.99996 -1.26,20.99996 0,0 -9,92 -9,92 0,0 -2.92,38 -2.92,38 0,0 -0.95,10 -0.95,10 0,0 0,12 0,12 0,0 -0.96,12 -0.96,12 0,0 0,21 0,21 0,0 0.96,12 0.96,12 0,0 0,11 0,11 0,0 0.95,10 0.95,10 2.1,29.97 7.04,59.75 13.97,89 20.52,86.49 58.88,168.33 74.7,256 4.6,25.54 9.12,52.03 9.42,78 0,0 1,15 1,15 0,0 0,34 0,34 0,0 -1,20 -1,20 0,0 -1.91,26 -1.91,26 0,0 -7.18,85 -7.18,85 0,0 -1.95,25 -1.95,25 0,0 0,11 0,11 0,0 -0.96,12 -0.96,12 0,0 0,29 0,29 0,0 0.99,14 0.99,14 0.05,2.1 -0.28,5.58 1,7.3 1.53,2.07 12.07,5.57 15.01,6.65 0,0 39,13.38 39,13.38 39.32,13.1 89.06,24.97 130,31.75 13.32,2.2 47.01,7.88 59,7.92 0,0 15.42,-113 15.42,-113 6.03,-38.84 15.09,-74.1 28.63,-111 18.23,-49.67 47.21,-94.79 63.95002,-145 6.47,-19.41 12.76,-44.53 13,-65 0.2,-17.21 0.02,-32.89 -2.28,-50 -8.35,-61.93 -39.53002,-130.04 -63.12002,-188 -25.95,-63.76 -47.27,-129.72 -57.33,-198 -4.49,-30.48 -8.08,-61.29 -10.18,-92 -7.28,-106.33996 -10.14,-226.65996 -70.43,-318.99996 -34.25,-52.45 -73.35,-85.01 -127.66,-115.14 -35,-19.42 -80.01,-36.29 -111,-59.76 -35.49,-26.86 -69.66,-80.79 -97.65,-117.1 0,0 -64.63,-77 -64.63,-77 0,0 -31.72,-37 -31.72,-37 -5.93,2.78 -16.82,13.15 -22,17.98 0,0 -30,28.02 -30,28.02 0,0 -24.91,25 -24.91,25 -28.67,30.78 -55.87,62.87 -80.51,97 -27.84,38.56 -53.03,78.73 -74.84001,121 0,0 -16.94001,34 -16.94001,34 -2.5,5.64 -2.43,17.56 -8.23,31 -5.34,12.39 -14.82001,22.03 -18.12001,30 -16.750004,40.54 -31.27,91.15 -41.1,134 -9.01,39.26 -15.51,78.93 -19.52,119 0,0 -2.92,38 -2.92,38 0,0 -0.95,10 -0.95,10 0,0 0,12.99996 0,12.99996 0,0 -0.96,12 -0.96,12 0,0 0,46 0,46 0,0 1,17 1,17 0.03,20.76 3.24,55.07 6,76 z M 1002.8196,550.29674 c 16.92,-1.32 34.89,12.75 47,23.13 31.92,27.33 59.66,74.37 74.58,113.57 25.02,65.78 30.75,136.49 35.51,206 0,0 8.08,101.99996 8.08,101.99996 0,0 16.96,138 16.96,138 2.88,20.72 9.64,60.82 9.87,80 0.14,12.51 1.6,35.76 -5.65,46 -13.41,18.93 -41.85,-1.39 -54.35,-11.62 -29.39,-24.04 -57.65,-62.41 -74.75,-96.38 -36,-71.5 -45.78,-145.26 -51.16,-223.99996 0,0 -1.18,-23 -1.18,-23 -4.71,-69 -8.73,-138.23 -17.19,-207 0,0 -7.72002,-79 -7.72002,-79 0,0 -0.99,-18 -0.99,-18 0,0 0.9,-12 0.9,-12 1.03,-14.9 2.1,-34.16 20.09002,-37.7 z M 358.81958,1716.9967 c 0,0 -8.58,-55 -8.58,-55 -10.04,-55.68 -23.04,-101.06 -38.56,-155 -9.97,-34.67 -21.49,-68.71 -29.28,-104 -3.21,-14.49 -7.56,-38.47 -7.58,-53 -0.04,-24.83 0.46,-45.24 9.42,-69 7,-18.55 16.11,-35.12 30.58,-48.96 7.01,-6.7 16.99,-13.56 27,-14 16.59,-0.72 29.67,15.39 38,27.96 16.76,25.29 38.53,76.68 51,106 29.88,70.28 60.7,141.23 73.41,217 0,0 5.68,51 5.68,51 0,0 0.91,12 0.91,12 0,0 0,49 0,49 0,0 -1,19 -1,19 0,0 -0.91,11 -0.91,11 0,0 -2.26,33 -2.26,33 0,0 -4,44 -4,44 0,0 -2.77,29 -2.77,29 0,1.65 0.11,3.32 0.96,4.79 1.86,3.18 15.12,10.3 18.98,12.49 22.43,12.75 45.29,25.51 69,35.72 0,0 1,-15 1,-15 0,0 1.91,-42 1.91,-42 0,0 3.26,-49 3.26,-49 0,0 2.92,-37 2.92,-37 0,0 1.91,-25 1.91,-25 0,0 1,-18 1,-18 0,0 0,-14 0,-14 0,0 1,-17 1,-17 0,0 -1,-22 -1,-22 0,0 0,-12 0,-12 0,0 -0.91,-11 -0.91,-11 0,0 -4.82,-46 -4.82,-46 -11.89,-82.47 -43.85,-156.99 -67.55,-236 -14.44,-48.12 -25.57,-97.71 -27.76,-148 0,0 -0.96,-13 -0.96,-13 0,0 0,-32 0,-32 0,0 1,-20 1,-20 0,0 0.91,-10 0.91,-10 0,0 1.92,-23 1.92,-23 0,0 9.33,-83 9.33,-83 0,0 2.93,-33 2.93,-33 0,0 0.91,-9.99996 0.91,-9.99996 0,0 1,-19 1,-19 0,0 0,-39 0,-39 0,0 -0.91,-12 -0.91,-12 -2.95,-43.12 -10.48,-87.93 -32.24,-126 -18.16,-31.75 -49.14,-60.54 -87.85,-61 -11.72,-0.13 -19.53,0.18 -31,3.43 -37.87,10.73 -59.91,41.31 -73.05,76.57 -10.51,28.21 -14.94,58.34 -19.22,88 -6.13,42.51 -10.66,85.24 -21.1,126.99996 -10.54,42.14 -24.07,73.58 -43.89,112 -17.64,34.2 -39.06,66.53 -52.05001,103 -9.91,27.82 -13.03,51.65 -12.69,81 0,0 0.91,10 0.91,10 4.04,57.73 28.65001,114.36 51.24001,167 0,0 36.43,88 36.43,88 0,0 10.75,30 10.75,30 0,0 5.79,17 5.79,17 1.78,3.39 9.62,12.58 12.47,16 0,0 24.33,28 24.33,28 0,0 44.08,46 44.08,46 6.81,6.81 22.57,22.02 30,27 z m 359,-919.60996 c 19.67,-2.65 31.71,11.15 41.19,26.61 17.17,28.01 25.37,68.59 29.81,101 0,0 13.28,123.99996 13.28,123.99996 6.79,54.98 15.48,104.22 29.09,158 0,0 42.05,145 42.05,145 6.58,23.65 16.46,64.02 16.58,88 0,0 0.91,14 0.91,14 0,0 -0.91,13 -0.91,13 -0.38,32.89 -12.39,68.99 -31.02,96 -8.94,12.95 -24,30.86 -40.98,31.91 -16.97,1.04 -28.15,-15.94 -35.57,-28.91 -15.57,-27.2 -35.2,-78.41 -47.43,-109 -23.78,-59.46 -53.49,-131.28 -67.65,-193 -5.78,-25.17 -9.67,-50.25 -11.44,-76 0,0 -0.91,-12 -0.91,-12 0,0 0,-16 0,-16 0,0 -0.66,-9 -0.66,-9 0,0 0.66,-9 0.66,-9 0,0 0,-18 0,-18 0,0 1,-12 1,-12 0,0 0,-9 0,-9 0,0 2.83,-30 2.83,-30 0,0 10.02,-91 10.02,-91 4.41,-36.96996 10.2,-106.99996 19.44,-139.99996 4.67,-16.66 11.19,-39.06 29.71,-44.61 z M 1264.8196,1923.9967 c 10.32,-1.46 48.42,-14.71 60,-18.95 34.06,-12.46 67.36,-26.51 100,-42.31 0,0 26,-13.5 26,-13.5 0,0 41,-23.24 41,-23.24 3.18,-1.91 12.95,-6.59 13.53,-10.21 0.38,-2.34 -2.35,-11.18 -3.2,-13.79 0,0 -10.91,-29 -10.91,-29 -21.35,-49.89 -66.23,-86.15 -122.42,-73.58 -8.71,1.95 -19.34,6.47 -27,11.03 -50.8,30.28 -61.55,101.01 -69.27,154.55 0,0 -7.73,59 -7.73,59 z" />
  <path
     sodipodi:insensitive="true"
     style="fill:#007fff;fill-opacity:1;stroke:none"
     id="turquoise"
     fill="none"
     stroke="#000000"
     stroke-width="1"
     d="m 1244.7145,73.774116 c -21.31,50.249994 -53.97,97.509994 -69.98,148.999994 -7.25,23.35 -10.3,47.62 -10.02,72 0,0 0.91,10 0.91,10 4.17,60.70999 28.81,117.27999 51.49,172.99999 28.35,69.65001 51.92,133.32004 64.52,208.00008 7.2,42.67002 12.04,85.88002 14.99,129.00002 6.4,93.58 12.94,187.26 59.95,271 36.67,65.31 98.44,112.28 169.14,135.33 15.05,4.91 40.35,10.82 56,10.67 7.66,-0.08 17.51,-1.44 22.35,-8.04 4.14,-5.64 3.72,-13.32 3.65,-19.96 -0.17,-14.18 -10.48,-62.84 -13.58,-80 -6.7,-37.15 -12.83,-74.44 -16.59,-112 0,0 -3.92,-46 -3.92,-46 0,0 -0.91,-10 -0.91,-10 0,0 -1,-18 -1,-18 0,0 0,-14 0,-14 0,0 -1,-16 -1,-16 0,0 0,-30 0,-30 0,0 1,-16 1,-16 0,0 0,-14 0,-14 0,0 1,-19 1,-19 0,0 1,-12 1,-12 0,0 0,-9 0,-9 0,0 1.91,-21 1.91,-21 2.65,-38.57 7.03,-77.32001 7.09,-116.00003 0,0 1,-24.00001 1,-24.00001 0,0 -0.96,-12.00001 -0.96,-12.00001 0,0 0,-15 0,-15 0,0 -0.95,-12.00001 -0.95,-12.00001 -2.42,-35.20002 -7.9,-69.73003 -16.46,-104.00004 -11.3,-45.18 -27.59,-88.88 -42.3,-133 -16.47,-49.41 -28.08,-87.49999 -37.72,-138.99999 0,0 -5.52,-41 -5.52,-41 0,0 -1.08,-13 -1.08,-13 -0.05,-2.2 0.28,-5.51 -1,-7.37 -1.11,-1.6 -5.22,-3.77 -7.01,-4.77 0,0 -16,-8.86 -16,-8.86 0,0 -42,-21.26 -42,-21.26 -7.32,-3.54 -21.68,-11.02 -29,-12.74 0,0 25.42,88 25.42,88 11.82,40.46 25.15,80.41 39.63,119.99999 26.06,71.25 56.81,141.29 71.75,216.00001 4.24,21.22001 8.95,52.62002 9.2,74.00004 0,0 1,15 1,15 0,0 0,40.00002 0,40.00002 0,0 -1,22.00001 -1,22.00001 0,0 -1,11.00001 -1,11.00001 0,0 0,9 0,9 0,0 -4.17,53.00001 -4.17,53.00001 0,0 -4.92,65 -4.92,65 0,0 -1.91,26 -1.91,26 0,0 -1,13 -1,13 0,0 0,11 0,11 0,0 -1,10 -1,10 0,0 -2,40 -2,40 0,0 -0.91,10 -0.91,10 0,0 -1.92,24 -1.92,24 -2.06,20.54 -4.28,42.55 -11.59,62 -9.32,24.77 -26.93,42.17 -54.58,32.3 -29.47,-10.52 -51.97,-44.94 -64.3,-72.3 -29.04,-64.38 -31.14,-143.57 -37.87,-213 -8.59,-88.74002 -19.21,-154.29005 -45.85,-240.00009 0,0 -42.13,-131.00001 -42.13,-131.00001 -6.06,-22.36 -11.25,-44.84 -12.94,-68 0,0 -0.91,-10 -0.91,-10 -0.24,-20.98999 0.77,-39.48999 5.89,-59.99999 10.54,-42.15 33.4,-78.18 58.53,-113 0,0 25.66,-33 25.66,-33 5,-6.01 10.73,-11.39 14.92,-18 0,0 -28,-9.950006 -28,-9.950006 0,0 -40,-13.069994 -40,-13.069994 0,0 -33,-8.979994 -33,-8.979994 z M 471.71448,196.77411 c 4.63,4.62 19.48,11.05 26,13.85 23.85,10.24 48.25,17.26 74,20.43 10.7,1.32 27.68,1.79 33.56,-9.28 2.85,-5.37 2.51,-12.09 2.44,-18 0,0 -5.58,-38 -5.58,-38 0,0 -7.42,-37 -7.42,-37 -37.19,16.02 -89.18,45.48 -123,68 z m 409,44.21 c 0,0 -12,0.96 -12,0.96 0,0 -30,2.99 -30,2.99 0,0 -57,6.67 -57,6.67 0,0 -70,7 -70,7 -12.28,1.23 -38.06,2.71 -46.21,12.47 -3.59,4.3 -4.25,9.29 -4.05,14.7 0.53,13.95 6.73,29.36999 12.49,41.99999 10.09,22.1 20.66,39.83 34.1,60 49.15,73.72 118.46,132.7 160.41,214.00004 38,73.65003 56.31,144.89006 65.1,227.00006 8.76,81.92 8.92,164.7 23.58,246 8.46,46.89 22.32,91.21 41.01002,135 21.46,50.32 49.23,97.98 75.26,146 0,0 26.06,49 26.06,49 0,0 42.94,85 42.94,85 13.26,24.52 28.34,54.55 55.31,66.13 9.53,4.09 19.8,4.78 30,5.55 0,0 22,-1.53 22,-1.53 0,0 57,-10.5 57,-10.5 36.93,-8.36 77.3,-16.49 113,-28.65 24.4,-8.31 47.11,-20.44 45.96,-50 -0.73,-18.84 -7.9,-37.08 -15.65,-54 -11.73,-25.6 -27.55,-49.14 -43.89,-72 0,0 -44.54,-59 -44.54,-59 -33.58,-44.03 -64.54,-90.69 -85.87,-142 -24.85,-59.79 -37.75,-117.98 -45.73,-182 -9.33,-74.87 -10.11,-150.32 -21.7,-225 -11.99,-77.19004 -37.73,-146.91007 -75.72,-215.0001 0,0 -87,-151 -87,-151 -13.37,-23.94 -26.64,-48.17 -41.86,-70.99999 -12.75,-19.12 -27.34002,-37.16 -48.00002,-48.11 -18.14,-9.62 -38.95,-10.89 -59,-10.68 0,0 -16,0 -16,0 z m 703.00002,0.79 c 5.31,29.13 12.18,57.64 20.72,85.99999 23.83,79.13 52.75,146.89 66.69,230.00002 3.28,19.54001 5.77,39.23001 6.63,59.00002 0,0 0.96,12.00001 0.96,12.00001 0,0 0,45.00002 0,45.00002 0,0 -1,19.00001 -1,19.00001 0,0 -0.91,10.00001 -0.91,10.00001 0,0 -3.26,41.00001 -3.26,41.00001 0,0 -5.87,68 -5.87,68 0,0 -0.96,13 -0.96,13 0,0 -1,20 -1,20 0,0 0,18 0,18 0,0 1,15 1,15 0,0 2.87,35 2.87,35 5.66,40.77 18.31,86.08 48.13,116 15.21,15.25 34.9,26.97 57,27 0,0 9,0 9,0 10.82,-0.13 22.82,-4.22 32,-9.81 34.32,-20.92 46.39,-60.28 54.88,-97.19 4.73,-20.56 8.61,-48.77 11.4,-70 3.66,-27.77 8.05,-55.57 13.72,-83 0,0 13.42,-51 13.42,-51 1.31,-4.47 6.38,-17.52 6.29,-21.00001 -0.11,-4.35 -8.13,-27.27001 -10.04,-33.00001 -5.86,-17.57001 -21.73,-60.71003 -29.67,-76.00004 -3.62,3.98001 -7.05,11.10001 -9.85,16.00001 0,0 -16.45,29.00001 -16.45,29.00001 -24.42,44.47003 -38.94,73.53004 -49.1,124.00004 -2.9,14.4 -7.96,40.07 -13.2,53 -2.08,5.11 -6.73,14.74 -12.4,16.34 -3.14,0.89 -5.79,-1.21 -7.78,-3.4 -4.05,-4.45 -6.15,-14 -6.93,-19.94 -2.27,-17.26 -0.55,-32.85 0.62,-50 0,0 1.18,-21 1.18,-21 0,0 0.91,-10 0.91,-10 0,0 0,-45.00001 0,-45.00001 0,0 -0.91,-12.00001 -0.91,-12.00001 -2.12,-30.26002 -7.12,-60.37003 -13.67,-90.00004 -16.94,-76.70004 -39.6,-139.74004 -66.37,-213.00004 0,0 -21.05,-61 -21.05,-61 0,0 -9.14,-27.99999 -9.14,-27.99999 -2.57,-4.7 -16.13,-16.17 -20.86,-20.28 -9.72,-8.46 -37.11,-32.63 -47,-37.72 z m -1225.00002,41 c 0,0 -24,22.09 -24,22.09 0,0 -33.91,33.90999 -33.91,33.90999 -43.37,46.55 -73.59,85.16 -108.76,138 0,0 -20.53,33 -20.53,33 -1.83,3.05 -7.03,10.81 -7.18,14 -0.22,4.54 8.22,13.76001 11.42,16.96001 14.4,14.41 27.26,18.76001 46.96,20.13001 3.14,0.22 4.71,0.83 8,0.59 0,0 14,-0.85 14,-0.85 27.65,-2.63 68.27,-12.37001 96,-18.95001 24.72,-5.86001 49.86,-11.20001 74,-19.21001 25.73,-8.55 52.21,-19.56 50.96,-51.67 -0.73,-18.84 -7.9,-37.08 -15.65,-54 -14.64,-31.97 -35.41,-60.96 -56.44,-89 0,0 -34.87,-44.99999 -34.87,-44.99999 z m 567,144.29999 c 19.72,-1.91 43.22,14.26 58.00002,25.91 35.86,28.27 75.91,74.08 102.02,111.79002 32.4,46.79002 54.79,94.74004 68.61,150.00007 13.16,52.67001 17.77,107.06001 21.46,161.00001 0,0 1.82,20 1.82,20 0,0 3.26,46 3.26,46 8.13,85.02 15.97,141.76 37.95,225 8.93,33.86 20.75,66.94 32.22,100 7.31,21.06 15.27,41.99 19.24,64 3.48,19.31 4.3,47.01 -18.58,54.64 -4.96,1.65 -8.88,1.42 -14,1.36 -20.06,-0.24 -41.35,-15.58 -56,-28.13 -30.24,-25.9 -66.34,-70.09 -89.71,-102.87 -32.82,-46.04 -60.2,-95.65 -76.57,-150 -20.17,-66.97 -24.9,-136.72 -29.63,-206 0,0 -1.18,-24 -1.18,-24 -3.19,-46.71 -7.35002,-93.6 -14.18002,-140 0,0 -9.98,-58.00003 -9.98,-58.00003 -6.19,-35.56001 -19.01,-83.12004 -29.47,-118.00005 0,0 -20.91,-71.00002 -20.91,-71.00002 -1.77,-7.19 -4.28,-18.77 -4.37,-26 -0.19,-16.79 -0.25,-31.74 20,-35.7 z m -309,156.13003 c -8.01,1.31 -14.19,2.43 -21,7.36 -11.49,8.32 -15.84,25.65001 -16,39.21002 0,0 0,28.00001 0,28.00001 0,0 0.91,12.00001 0.91,12.00001 0,0 8.18,95.00003 8.18,95.00003 0,0 2,27 2,27 0,0 0.91,10 0.91,10 0,0 1,28 1,28 0,0 1,15 1,15 0,0 0,59 0,59 0,0 -1,15 -1,15 -0.28,24.38 -2.48,48.74 -4.83,73 0,0 -7.34,78 -7.34,78 0,0 -2.83,32 -2.83,32 0,0 0,9 0,9 0,0 -1,10 -1,10 0,0 0,54 0,54 0,0 0.91,12 0.91,12 2.32,33.9 7.31,66.95 15.46,100 12,48.59 29.47,95.49 44.96,143 12.4,38.02 23.68,76.66 31.06,116 3.94,21.01 7.06,42.68 8.61,64 0,0 0,8 0,8 0,0 1,12 1,12 0,0 0,44 0,44 0,0 -1,18 -1,18 0,0 -0.91,11 -0.91,11 0,0 -8.18,95 -8.18,95 0,0 -1.91,25 -1.91,25 0,0 -1,40 -1,40 0,0 1,15 1,15 0,0 0.91,16 0.91,16 0.21,2.88 -0.18,6.14 1.83,8.5 2,2.35 8.25,4.16 11.26,5.17 0,0 25,8.33 25,8.33 33.52,11.06 74.26,21.1 109,27.61 0,0 41,7.12 41,7.12 3.77,0.55 12.04,2.84 14.35,-1.02 1.3,-2.18 3.36,-14.5 3.9,-17.71 0,0 6.02,-38 6.02,-38 5.94,-41.21 11.01,-82.64 21.61,-123 10.26,-39.02 23.66,-71.49 40.43,-108 14.3,-31.14 29.83,-61.9 39.26002,-95 8.88,-31.13 9.8,-51.13 9.43,-83 0,0 -0.92,-10 -0.92,-10 -2.23,-27.88 -8.79002,-53.41 -17.06002,-80 -18.96,-61.04 -47.02,-118.94 -66,-180 -17,-54.7 -28.75,-106.96 -34.86,-164 0,0 -6.07,-67 -6.07,-67 0,0 -3.81,-56 -3.81,-56 0,0 -1.45,-20 -1.45,-20 0,0 -7.25,-62 -7.25,-62 -11.42,-73.56 -35.7,-144.35001 -89.58,-198.00004 -13.78,-13.72001 -30.32,-26.21001 -47,-36.20002 -27.07,-16.21001 -67.96,-32.33001 -100,-28.37001 z m -514,142.03007 c -8.139997,1.82 -24.419993,9.09 -29.439993,15.71 -2.25,2.97 -4.89,14.66 -5.93,18.83 0,0 -9.63,41 -9.63,41 -7.91,38.21 -13.41,76.21 -17.17,115 0,0 -1.92,27 -1.92,27 0,0 -0.95,10 -0.95,10 0,0 0,13 0,13 0,0 -0.96,12 -0.96,12 0,0 0,46 0,46 0,3.1 -0.18,7.11 1.31,9.9 3.23,6.01 15.31,8.94 21.69,9.09 26.050002,0.6 47.989993,-19.82 62.989993,-38.99 43.43,-55.54 48.4,-143.01 36.76,-210 -2.71,-15.59 -7.33,-30.89 -14.51,-45 -4.86,-9.56 -11.77,-18.71 -22.24,-22.45 -5.56,-1.99001 -14.16,-1.89001 -20,-1.09 z m 600,4.84 c 31.75,-3.16 55.17,25.17 69.8,49.7 26.9,45.1 35.03,108.35 40.03,160 0,0 2.89,34 2.89,34 0,0 1.45,21 1.45,21 0,0 8.11,79 8.11,79 6.74,51.21 16.98,100.34 31.14,150 0,0 43.3,137 43.3,137 9.16,30.52 16.19,61.19 18.37,93 0,0 0.91,10 0.91,10 0.33,28.18 -3.41,56.18 -12.35,83 -16.79,50.36 -49.54,98.76 -74.33,146 -11.3,21.53 -20.26,45.49 -26.44,69 0,0 -11.51,52 -11.51,52 -2.5,10.06 -4.75,20.81 -9.69,30 -2,3.72 -5.26,8.75 -9.68,9.67 -6.59,1.37 -10.3,-5.48 -11.97,-10.67 -3.72,-11.51 -4.17,-25.93 -4.03,-38 0,0 0.91,-10 0.91,-10 0,0 1.18,-23 1.18,-23 0,0 1.91,-26 1.91,-26 0,0 0,-41 0,-41 0,0 -0.91,-12 -0.91,-12 -2.12,-30.26 -7.12,-60.37 -13.67,-90 -12.24,-55.46 -29.08,-109.52 -48.11,-163 -19.29,-54.19 -42.18,-111.15 -55.43,-167 -6.47,-27.29 -11.01,-55.04 -12.97,-83 0,0 -0.95,-10 -0.95,-10 0,0 0,-11 0,-11 0,0 -0.96,-12 -0.96,-12 0,0 0,-18 0,-18 0,0 1,-23 1,-23 0,0 1,-12 1,-12 0,0 0,-9 0,-9 0,0 2.83,-30 2.83,-30 0,0 10,-102 10,-102 0,0 4.26,-57 4.26,-57 0,0 2.82,-34 2.82,-34 1.94,-28.15 4.26,-56.27 9.89,-84 4.76,-23.41 14.66,-52.68 41.2,-57.7 z m -370,963.7 c 0,0 -11.21,-61 -11.21,-61 -9.21,-43.35 -21.78,-85.98 -35.79,-128 -13.42,-40.26 -28.26,-80.51 -37.42,-122 -3.52,-15.9 -7.55,-38.9 -7.58,-55 -0.03,-20.62 0.85,-37.8 5.89,-58 11.57,-46.28 40.74,-90.82 69.9,-128 8.46,-10.78 24.1,-31.09 34.21,-39.19 5.46,-4.37 12.04,-9.78 18.91,-4.95 9.03,6.33 14.39,26.77 17.76,37.14 0,0 28.35,98 28.35,98 12.36,39.75 25.82,79.01 40.4,118 0,0 36.92,99 36.92,99 13.96,40.2 25.84,80.78 31.93,123 0,0 3.82,34 3.82,34 0,0 0.91,10 0.91,10 0,0 1,19 1,19 0,0 0,40 0,40 0,0 -1,22 -1,22 0,0 -1,11 -1,11 0,0 0,9 0,9 0,0 -4.17,53 -4.17,53 0,0 -2.92,37 -2.92,37 0,0 -0.9,10 -0.9,10 -0.11,4.2 -1.94,12.47 0,15.79 1.63,2.75 10.81,7.25 13.99,8.98 0,0 37,19.23 37,19.23 0,0 0,-16 0,-16 0,0 1,-17 1,-17 0,0 1.91,-28 1.91,-28 0,0 5.18,-72 5.18,-72 0,0 1.91,-30 1.91,-30 0,0 1,-13 1,-13 0,0 0,-17 0,-17 0,0 0.95,-13 0.95,-13 0,0 0,-14 0,-14 0,0 -0.95,-12 -0.95,-12 -0.05,-30.17 -4.07,-60.31 -9.42,-90 -15.36,-85.12 -52.77,-164.6 -74.7,-248 -10.32,-39.27 -18.15,-79.4 -19.92,-120 0,0 -0.96,-13 -0.96,-13 0,0 0,-31 0,-31 0,0 1,-19 1,-19 0,0 0.91,-10 0.91,-10 0,0 9.81,-88 9.81,-88 0,0 5.37,-58 5.37,-58 0,0 0.91,-12 0.91,-12 0,0 0,-41 0,-41 -0.02,-10.67 -1.98,-27.24 -3.58,-38 -4.87,-32.88 -16.1,-71.03 -37.5,-97 -27.4,-33.23 -69.95,-46.12001 -106.92,-19.57 -27,19.39 -40.09,53.45 -47.87,84.57 -7.73,30.92 -11.76,62.52 -16.4,94 -4.26,28.88 -9.19,57.75 -16.61,86 -9.93,37.76 -24.51,72.37 -42.38,107 -17.96,34.82 -38,68.32 -49.72,106 -7.25,23.35 -10.3,47.62 -10.02,72 0,0 0.91,10 0.91,10 1.75,25.47 7.04,49.57 14.37,74 15.88,52.91 39.81,103.35 59.3,155 0,0 20.7,61 20.7,61 0,0 9.29,32 9.29,32 2.29,4.7 19.78,23.17 24.39,28 9.38,9.82 29,31.82 39.04,39 z m 1477.00002,-182 c 34.32,-52.54 68.53,-124.74 89.69,-184 7.98,-22.35 21.79,-62.62 26.31,-85 -7.39,-2.1 -17.29,-2 -25,-2 0,0 -48,2.83 -48,2.83 0,0 -116,12.34 -116,12.34 0,0 -18,1.85 -18,1.85 -11.68,0.8 -25.67,2.31 -37,5.11 -5.47,1.35 -11.48,3.14 -15.47,7.34 -4.2,4.4 -5.01,9.68 -4.79,15.53 0.74,19.36 13.96,47.08 23.4,64 23.55,42.21 50.32,76.46 81.73,113 0,0 27.88,33 27.88,33 4.2,5.03 9.54,13.17 15.25,16 z m -222,244 c 5.83,-1.66 10.35,-6.26 15,-10 0,0 26,-21.95 26,-21.95 0,0 31,-28.09 31,-28.09 0,0 40.04,-40.96 40.04,-40.96 0,0 19.11,-21 19.11,-21 3.88,-4.41 8.34,-8.65 10.85,-14 -15.08,-10.05 -30.15,-18.28 -47,-25 -19.33,-7.71 -39.15,-12.24 -60,-12 -9.73,0.12 -21.47,2.83 -28.96,9.33 -9.93,8.6 -13.89,24.97 -14.04,37.67 0,0 0,28 0,28 0,0 0.91,12 0.91,12 0,0 3.26,41 3.26,41 0,0 3.83,45 3.83,45 z m -582,205 c 0,0 16,0 16,0 0,0 10,-0.96 10,-0.96 0,0 12,0 12,0 0,0 11,-0.95 11,-0.95 0,0 61,-5.37 61,-5.37 0,0 26,-3.64 26,-3.64 3.09,-0.51 7.8,-0.66 9.72,-3.39 1.22,-1.73 3.45,-10.17 4.13,-12.69 0,0 6.28,-32 6.28,-32 5.73,-41.29 3.75,-89.83 -7.71,-130 -4.65,-16.3 -14.26,-39.33 -31.42,-45.45 -4.8,-1.72 -9,-1.6 -14,-1.55 -23.98,0.28 -51.41,27.7 -64.28,46 -31.03,44.13 -42.34,98.8 -41.72,152 0,0 3,38 3,38 z m 279,-44 c 52.74,-17.58 105.01,-37.2 154,-63.69 0,0 34,-18.31 34,-18.31 2.82,-1.61 10.33,-5.13 11.22,-8.21 0.67,-2.34 -1.73,-8.33 -2.55,-10.79 -3.33,-9.94 -6.74,-17.66 -11.42,-27 -14.89,-29.69 -38.11,-53.07 -72.25,-57.15 0,0 -7,-0.77 -7,-0.77 0,0 -11,1.09 -11,1.09 -6.02,0.71 -13.46,3.23 -19,5.69 -47.77,21.18 -61.63,87.72 -69.41,134.14 0,0 -6.59,45 -6.59,45 z" />
  <path
     style="display:inline;stroke:none"
     sodipodi:insensitive="true"
     d="M 968,0.21 C 589.54389,8.7979206 228.83052,252.21723 82.480977,601.86346 -80.395557,965.02864 3.6267123,1420.0609 286.04869,1700.7084 556.37652,1983.5039 998.32707,2076.885 1361.0229,1932.9759 1725.2217,1796.9216 1987.1235,1431.5886 1998.8968,1043.0435 2019.8725,659.41079 1796.216,276.07284 1450.5649,107.12362 1301.8603,31.31948 1134.4817,-3.9477586 968,0.21 Z m 3,79.93 c 338.8225,-12.974102 675.4713,177.47282 835.6962,477.06027 186.3455,329.15098 138.0413,770.20323 -116.0108,1050.54633 -225.6173,263.3774 -607.0238,374.361 -939.32467,278.1563 C 381.89372,1788.2268 99.94257,1438.5004 81.91,1057 56.028793,707.84088 251.11548,355.22893 560.72474,191.32747 686.21232,122.07244 828.15926,86.065236 971,80.14 Z"
     id="circle" />
  <path
     style="display:inline;stroke:none"
     sodipodi:insensitive="true"
     d="m 1160,840.00001 c 99.0217,0.42018 198.0881,-0.84553 297.0815,0.64195 102.159,7.24062 173.4367,125.19033 131.5118,218.81494 -25.7664,69.869 -102.204,108.0576 -174.1748,100.5432 -84.8062,0 -169.6123,0 -254.4185,0 -0.4202,99.0217 0.8455,198.0881 -0.642,297.0814 -7.2406,102.159 -125.1903,173.4367 -218.81493,131.5118 C 870.67404,1562.8269 832.48561,1486.3893 840,1414.4185 c 0,-84.8061 0,-169.6123 0,-254.4184 -99.14247,-0.4703 -198.34093,0.954 -297.44733,-0.7364 -105.54578,-7.1344 -174.82268,-132.2713 -128.38527,-225.88481 28.71973,-67.57867 104.4812,-100.54198 174.81205,-93.37888 83.67351,0 167.34703,0 251.02055,0 0.42018,-99.02171 -0.84553,-198.08818 0.64195,-297.08155 7.24061,-102.15899 125.19034,-173.4367 218.81495,-131.51183 69.8691,25.76642 108.0575,102.20401 100.5431,174.17482 0,84.80619 0,169.61237 0,254.41856 z M 1008,480.28995 c -52.79289,-6.92829 -96.48809,44.88095 -87.99999,95.69973 0.27403,290.9188 -0.54924,581.86682 0.41277,872.76732 3.90783,64.096 90.57662,95.0856 135.03352,49.2705 37.8374,-36.4074 20.6296,-92.0483 24.5537,-138.5781 -0.5412,-270.4867 1.0835,-541.0531 -0.8131,-811.48995 -4.7055,-35.6188 -35.5187,-64.587 -71.1869,-67.6695 z"
     id="plus" />
</svg>
